<svg width="14" height="18" viewBox="0 0 14 18" fill="none" xmlns="http://www.w3.org/2000/svg">
<path d="M13.4635 10.0938H4.71692C5.34162 9.80989 6.01847 9.59625 6.71727 9.37839C7.98162 8.98446 9.28286 8.57624 10.3413 7.68649H13.4635C13.7167 7.68649 13.9219 7.48132 13.9219 7.22816C13.9219 6.975 13.7167 6.76982 13.4635 6.76982H11.1649C11.7076 5.91981 11.8415 4.87728 11.5131 3.81322C11.0276 2.23985 9.63896 0.924644 8.13613 0.614911C6.7409 0.32702 5.18525 0.641408 3.97676 1.45531C2.91973 2.16716 2.21916 3.20199 2.00378 4.36966C1.95794 4.61852 2.12248 4.85772 2.37152 4.90355C2.62002 4.94795 2.85939 4.78503 2.9054 4.53581C3.07549 3.6127 3.63784 2.78877 4.4888 2.21585C5.49714 1.53659 6.79032 1.27233 7.95137 1.51296C9.14124 1.75788 10.2459 2.81527 10.6373 4.08356C10.8142 4.65648 10.9771 5.7554 10.083 6.67923C10.0515 6.71173 10.0167 6.73858 9.98448 6.76982H0.536214C0.283057 6.76982 0.0778809 6.975 0.0778809 7.22816C0.0778809 7.48132 0.283057 7.68649 0.536214 7.68649H8.65341C7.97281 8.02225 7.22222 8.2608 6.4446 8.50326C5.22999 8.88194 3.97994 9.27407 2.94023 10.0938H0.536214C0.283057 10.0938 0.0778809 10.299 0.0778809 10.5521C0.0778809 10.8053 0.283057 11.0105 0.536214 11.0105H2.07427C1.34497 12.1403 1.32487 13.7018 2.08506 15.051C3.06886 16.7966 4.97936 17.488 6.8127 17.488C7.45007 17.488 8.07812 17.4046 8.65462 17.2528C11.0695 16.6165 12.5669 14.9253 12.563 12.8395C12.5626 12.5864 12.3575 12.3819 12.1047 12.3819C12.1043 12.3819 12.1039 12.3819 12.1039 12.3819C11.8508 12.3823 11.646 12.5882 11.6463 12.8409C11.6503 14.8129 9.98271 15.9548 8.42116 16.3662C6.45534 16.8836 3.92215 16.4439 2.88356 14.6012C2.31494 13.5918 2.16616 12.0629 3.18345 11.0918C3.21391 11.0627 3.24727 11.0385 3.27836 11.0105H13.4635C13.7167 11.0105 13.9219 10.8053 13.9219 10.5521C13.9219 10.299 13.7167 10.0938 13.4635 10.0938Z" fill="#1D1C1A"/>
</svg>
